<svg xmlns="http://www.w3.org/2000/svg" id="logo-scar" fill="#ffffff" viewBox="0 0 100 20.88"><path d="M12.56,20.44l.19-.22c.28.25.55.38.92.38s.6-.19.6-.46h0c0-.26-.13-.4-.7-.52-.62-.13-.9-.34-.9-.78h0c0-.43.37-.74.88-.74.39,0,.67.11.95.33l-.18.23c-.25-.2-.5-.29-.78-.29-.35,0-.57.19-.57.43h0c0,.26.14.4.73.53.6.13.88.35.88.76h0c0,.47-.38.77-.92.77-.43,0-.78-.14-1.1-.43"></path><path d="M17.08,19.71v-1.57h.3v1.55c0,.58.31.91.82.91s.81-.3.81-.89v-1.57h.3v1.54c0,.78-.45,1.19-1.12,1.19s-1.12-.41-1.12-1.17"></path><path d="M24.86,20.44l.19-.22c.28.25.55.38.92.38s.6-.19.6-.46h0c0-.26-.13-.4-.7-.52-.62-.13-.9-.34-.9-.78h0c0-.43.37-.74.88-.74.39,0,.67.11.95.33l-.18.23c-.25-.2-.5-.29-.78-.29-.35,0-.57.19-.57.43h0c0,.26.14.4.73.53.6.13.88.35.88.76h0c0,.47-.38.77-.92.77-.43,0-.78-.14-1.1-.43"></path><polygon points="30.08 18.42 29.17 18.42 29.17 18.14 31.29 18.14 31.29 18.42 30.39 18.42 30.39 20.83 30.08 20.83 30.08 18.42"></polygon><path d="M33.78,18.14h1.16c.33,0,.6.1.77.27.13.13.21.32.21.53h0c0,.45-.31.72-.73.79l.83,1.1h-.37l-.78-1.05h-.77v1.05h-.3v-2.69ZM34.91,19.52c.4,0,.69-.21.69-.55h0c0-.34-.25-.54-.69-.54h-.83v1.09h.83Z"></path><path d="M39.48,18.12h.29l1.23,2.71h-.33l-.32-.71h-1.47l-.32.71h-.31l1.23-2.71ZM40.23,19.85l-.61-1.37-.62,1.37h1.23Z"></path><path d="M43.45,18.14h.93c.85,0,1.43.58,1.43,1.34h0c0,.77-.58,1.35-1.43,1.35h-.93v-2.69ZM43.75,18.42v2.13h.63c.68,0,1.12-.46,1.12-1.06h0c0-.6-.43-1.07-1.12-1.07h-.63Z"></path><path d="M49.2,18.12h.29l1.23,2.71h-.33l-.32-.71h-1.47l-.32.71h-.31l1.23-2.71ZM49.95,19.85l-.61-1.37-.62,1.37h1.23Z"></path><path d="M56.24,18.14h.94c.85,0,1.43.58,1.43,1.34h0c0,.77-.58,1.35-1.43,1.35h-.94v-2.69ZM56.55,18.42v2.13h.63c.68,0,1.12-.46,1.12-1.06h0c0-.6-.43-1.07-1.12-1.07h-.63Z"></path><path d="M61.99,18.12h.28l1.23,2.71h-.33l-.32-.71h-1.47l-.32.71h-.31l1.23-2.71ZM62.74,19.85l-.61-1.37-.62,1.37h1.23Z"></path><polygon points="65.96 18.14 66.26 18.14 66.26 20.55 67.78 20.55 67.78 20.83 65.96 20.83 65.96 18.14"></polygon><polygon points="73.65 18.44 73.14 18.59 73.07 18.35 73.72 18.12 73.95 18.12 73.95 20.83 73.65 20.83 73.65 18.44"></polygon><path d="M78.2,19.48v-.05c-.17.26-.42.43-.76.43-.55,0-.94-.35-.94-.84h0c0-.52.4-.92.97-.92.31,0,.53.1.71.28.2.2.33.5.33,1.04h0c0,.86-.45,1.47-1.12,1.47-.35,0-.6-.14-.83-.33l.18-.23c.22.19.42.29.66.29.52,0,.8-.54.8-1.12M78.15,18.98h0c0-.35-.28-.62-.69-.62s-.65.3-.65.63h0c0,.35.27.6.66.6.41,0,.67-.3.67-.61"></path><path d="M80.86,20.45l.2-.22c.23.23.49.37.77.37.38,0,.65-.26.65-.6h0c0-.34-.28-.57-.67-.57-.23,0-.41.07-.57.15l-.2-.13.08-1.31h1.55v.28h-1.29l-.06.86c.16-.07.31-.12.53-.12.52,0,.93.31.93.82h0c0,.53-.4.89-.96.89-.39,0-.72-.18-.96-.43"></path><path d="M85.17,19.5h0c0-.76.45-1.4,1.14-1.4s1.13.63,1.13,1.39h0c0,.76-.45,1.4-1.14,1.4s-1.14-.63-1.14-1.39M87.13,19.5h0c0-.6-.32-1.12-.82-1.12s-.82.52-.82,1.11h0c0,.6.32,1.12.83,1.12s.82-.52.82-1.11"></path><path d="M33.16.61h-3.71v10.23h.76V1.31h2.89c1.84,0,3.1.85,3.1,2.47v.03c0,1.52-1.33,2.51-3.23,2.51h-1.91v.7h1.91c2.13,0,3.99-1.11,3.99-3.26v-.03c0-1.97-1.55-3.13-3.8-3.13"></path><path d="M8.43,6.24v2.94c-.74.63-1.96,1.17-3.26,1.17-2.73,0-4.38-1.97-4.38-4.62v-.03C.79,3.23,2.53,1.12,5.01,1.12c1.55,0,2.48.53,3.29,1.23l.5-.57c-1.02-.85-2.07-1.34-3.74-1.34C2,.44,0,2.96,0,5.73v.03C0,8.63,1.91,11.02,5.14,11.02c1.67,0,3.1-.72,4.02-1.53v-3.57h-.73v.32Z"></path><path d="M18.33,3.55v-.03c0-.73-.29-1.42-.77-1.9-.61-.61-1.62-1.01-2.88-1.01h-4.3v10.23h.76V1.31h3.49c1.86,0,2.94.86,2.94,2.24v.03c0,1.48-1.27,2.34-2.98,2.34h-2.58v.69h2.47l3.26,4.24h.96l-3.38-4.37c1.72-.23,3-1.21,3-2.92"></path><path d="M27.26,6.59c0,2.47-1.33,3.73-3.41,3.73s-3.46-1.39-3.46-3.8V.61h-.76v5.98c0,2.86,1.74,4.41,4.19,4.41s4.19-1.56,4.19-4.5V.61h-.76v5.98Z"></path><path d="M42.16.61h-3.71v10.23h.76V1.31h2.89c1.84,0,3.1.85,3.1,2.47v.03c0,1.52-1.33,2.51-3.23,2.51h-1.91v.7h1.91c2.13,0,3.99-1.11,3.99-3.26v-.03c0-1.97-1.55-3.13-3.8-3.13"></path><path d="M52.98.45v.69c2.31.22,3.94,2.2,3.94,4.58v.03c0,2.53-1.81,4.57-4.34,4.57s-4.37-2.08-4.37-4.6v-.03c0-2.39,1.61-4.34,3.92-4.55V.45c-2.85.23-4.71,2.62-4.71,5.27v.03c0,2.79,2.03,5.26,5.13,5.26s5.16-2.5,5.16-5.29v-.03c0-2.67-1.86-5.04-4.73-5.25"></path><path d="M78.3,8.47l-1.82-1.3c-.1-.07-.24-.06-.33.04-.59.68-1.22,1.12-2.25,1.12-1.48,0-2.52-1.24-2.52-2.83v-.03c0-1.54,1.04-2.81,2.52-2.81.93,0,1.59.42,2.17,1.07.09.1.23.11.33.03l1.83-1.42c.11-.08.13-.24.04-.35C77.35.81,75.99,0,73.94,0,70.74,0,68.38,2.42,68.38,5.5v.03c0,3.16,2.43,5.47,5.46,5.47,2.21,0,3.54-.91,4.52-2.19.08-.11.06-.27-.05-.35"></path><path d="M85.6.32c-.05-.11-.16-.19-.28-.19h-2.42c-.12,0-.23.07-.28.19l-4.23,10.04c-.08.2.06.42.28.42h2.4c.13,0,.24-.08.28-.19l.68-1.71.86-2.28,1.19-2.99,1.18,2.99.31.81h-2.43c-.1,0-.18.06-.22.15l-.76,1.93c-.04.1.04.22.15.22h4.14l.35.88c.05.12.16.19.28.19h2.48c.22,0,.37-.22.28-.42L85.6.32Z"></path><path d="M97.75,7.1c1.31-.56,2.18-1.63,2.18-3.26v-.03c0-1.04-.32-1.84-.94-2.46-.71-.71-1.83-1.13-3.45-1.13h-4.7c-.17,0-.31.14-.31.31v9.97c0,.17.14.31.31.31h2.32c.17,0,.31-.14.31-.31V2.74h1.93c.97,0,1.59.42,1.59,1.27v.03c0,.77-.59,1.25-1.57,1.25h-1.34c-.11,0-.2.09-.2.2v1.89c0,.11.09.2.2.2h.69l2.04,3.07c.06.09.15.14.25.14h2.63c.25,0,.39-.28.25-.48l-2.2-3.21Z"></path><path d="M63.99,4.2c-1.48-.33-1.84-.54-1.84-1.03v-.03c0-.39.35-.68,1.06-.68s1.43.19,2.16.55c.09.04.19.04.26-.02.34-.26,1.3-1.01,1.76-1.36.13-.1.12-.3,0-.39-1.1-.79-2.43-1.21-4.09-1.21-2.54,0-4.1,1.42-4.1,3.39v.03c0,2.16,1.74,2.8,3.99,3.31,1.45.35,1.8.57,1.8,1.03v.03c0,.45-.42.73-1.22.73-.92,0-1.8-.25-2.63-.73-.06-.04-.14-.03-.2.01-.59.46-1.28.99-1.84,1.43-.09.07-.09.21,0,.29,1.26.95,2.87,1.43,4.57,1.43,2.57,0,4.28-1.28,4.28-3.45v-.03c0-1.98-1.51-2.77-3.93-3.29"></path></svg>