<?xml version="1.0" encoding="utf-8"?>
<!-- Generator: Adobe Illustrator 26.0.2, SVG Export Plug-In . SVG Version: 6.00 Build 0)  -->
<svg version="1.1" baseProfile="tiny" id="Livello_1"
	 xmlns="http://www.w3.org/2000/svg" xmlns:xlink="http://www.w3.org/1999/xlink" x="0px" y="0px" viewBox="0 0 538.26 33.52"
	 overflow="visible" xml:space="preserve">
<g>
	<path fill="#FFFFFF" d="M108.29,13.49c-1.08-0.07-2.16-0.13-3.22-0.19c-7.22-0.41-13.46-0.77-13.46-3.87
		c0-2.74,3.91-3.85,13.48-3.85c9.06,0,14.34,1.8,14.87,5.08l0.04,0.24h6.64l-0.06-0.34c-1.26-6.87-8.54-10.35-21.65-10.35
		C87.37,0.2,85.47,7.05,85.47,10c0,7.64,11.45,8.41,20.66,9.02l0.72,0.05c7.39,0.52,14.37,1.02,14.37,4.37
		c0,4.19-8.16,4.67-14.3,4.67c-10.24,0-15.4-1.88-15.76-5.75l-0.02-0.26h-6.47l0.03,0.32c0.76,7.68,7.57,11.11,22.1,11.11
		c13.75,0,20.44-3.42,20.44-10.45C127.24,15.31,117.46,14.05,108.29,13.49z"/>
	<polygon fill="#FFFFFF" points="140.15,19.26 163.95,19.26 163.95,14.05 140.15,14.05 140.15,5.78 164.65,5.78 164.65,0.57 
		134.62,0.57 134.62,33.03 164.93,33.03 164.93,27.79 140.15,27.79 	"/>
	<path fill="#FFFFFF" d="M201.72,15.14c0.77-1.28,1.18-3.1,1.18-5.26c0-2.19-0.45-3.97-1.39-5.44c-1.72-2.56-4.89-3.86-9.42-3.86
		h-20.92v32.46h5.57V19.59h14.1l8.89,13.44h6.54l-9.67-14.37C198.78,18.28,200.67,16.98,201.72,15.14z M196.75,12.86
		c-0.6,1.09-2.02,1.64-4.34,1.68h-15.64V5.7h14.7c2.8,0,4.43,0.61,5.28,1.97c0.32,0.58,0.53,1.6,0.53,2.62
		C197.28,11.19,197.07,12.23,196.75,12.86z"/>
	<path fill="#FFFFFF" d="M243.67,23.53v-8.9h-19.71v5.08h14.38c-0.16,5.37-4.76,8.69-12.1,8.69c-8.69,0-12.91-3.79-12.91-11.58
		c0-8.06,4.07-11.66,13.2-11.66c10.36,0,11.38,5.14,11.45,6.71l0.01,0.28h5.52v-0.29c0-8.69-8.88-11.79-17.19-11.79
		c-12.08,0-18.73,5.95-18.73,16.74c0,10.43,6.7,16.66,17.92,16.66c7.18,0,11.04-2.31,13.07-4.45l0.22,4h4.91l0-0.75
		C243.69,30.93,243.67,26.88,243.67,23.53z"/>
	<rect x="250.51" y="0.57" fill="#FFFFFF" width="5.73" height="32.46"/>
	<path fill="#FFFFFF" d="M280.87,0c-6.82,0-11.58,1.67-14.99,5.24c-2.77,2.68-4.11,6.43-4.11,11.46c0,5.17,1.55,9.2,4.59,11.94
		c3.21,3.21,8.09,4.83,14.5,4.83c6.75,0,11.92-1.73,14.95-5c2.72-2.76,4.1-6.74,4.1-11.82c0-5.27-1.29-8.96-4.06-11.62
		C292.59,1.65,287.69,0,280.87,0z M294.23,16.74c0,3.75-1.01,6.64-2.91,8.36l0,0c-2.38,2.22-5.7,3.25-10.45,3.25
		c-4.32,0-7.45-0.91-9.85-2.86c-2.33-1.9-3.51-4.83-3.51-8.71c0-3.63,1.02-6.58,2.87-8.32c2.31-2.19,5.83-3.3,10.45-3.3
		c4.75,0,8.01,1,10.58,3.26C293.23,10.03,294.23,12.98,294.23,16.74z"/>
	<polygon fill="#FFFFFF" points="314.09,6.34 332.25,6.34 332.25,33.03 338.35,33.03 338.35,6.34 356.43,6.34 356.43,0.73 
		314.09,0.73 	"/>
	<path fill="#FFFFFF" d="M387.08,21.17c0,4.46-4.11,7.23-10.72,7.23c-7.2,0-11.17-2.58-11.17-7.27V0.57h-5.65v20.4
		c0,8.04,5.9,12.47,16.62,12.47c10.51,0,16.54-4.35,16.54-11.95V0.57h-5.61V21.17z"/>
	<polygon fill="#FFFFFF" points="420.3,26.45 407.68,0.73 407.6,0.57 400.43,0.57 400.43,33.03 405.84,33.03 405.84,9.45 
		417.4,33.03 423.03,33.03 434.88,9.42 434.88,33.03 440.29,33.03 440.29,0.57 433.24,0.57 	"/>
	<rect x="448.44" y="0.57" fill="#FFFFFF" width="5.74" height="32.46"/>
	<polygon fill="#FFFFFF" points="489.19,24.85 468.57,0.67 468.49,0.57 462.34,0.57 462.34,33.03 467.83,33.03 467.83,8.58 
		488.61,32.93 488.7,33.03 494.6,33.03 494.6,0.57 489.19,0.57 	"/>
	<path fill="#FFFFFF" d="M534.19,5.04C530.92,1.65,526.02,0,519.21,0c-6.82,0-11.58,1.67-14.99,5.24
		c-2.76,2.68-4.11,6.43-4.11,11.46c0,5.18,1.55,9.2,4.59,11.94c3.21,3.21,8.09,4.83,14.5,4.83c6.75,0,11.92-1.73,14.95-5
		c2.72-2.76,4.1-6.74,4.1-11.82C538.26,11.39,536.96,7.69,534.19,5.04z M532.57,16.74c0,3.75-1.01,6.64-2.91,8.36l0,0
		c-2.38,2.22-5.7,3.25-10.44,3.25c-4.32,0-7.46-0.91-9.85-2.86c-2.33-1.9-3.51-4.83-3.51-8.71c0-3.63,1.02-6.58,2.87-8.32
		c2.31-2.19,5.82-3.3,10.44-3.3c4.76,0,8.02,1,10.57,3.26C531.56,10.03,532.57,12.98,532.57,16.74z"/>
	<path fill="#FFFFFF" d="M22.53,14.17c-0.93-0.13-2.59-0.32-4.06-0.49c-0.78-0.09-1.53-0.17-2.1-0.24c-7.72-0.92-9.96-1.9-9.96-4.38
		c0-1.77,1.16-3.81,10.24-3.81c5.64,0,9.01,1.04,10.63,3.27c0.43,0.58,0.65,1.29,0.76,1.78l0.05,0.25h6.06l-0.06-0.37
		c-0.08-0.44-0.38-2-1.13-3.39c-2.6-4.46-7.93-6.63-16.3-6.63C10.18,0.15,5.41,1.5,2.8,4.11c-1.47,1.46-2.24,3.33-2.24,5.4
		c0,5.28,3.83,7.88,13.23,8.98c1.58,0.2,4.35,0.51,5.8,0.68l0.11,0.01c7.16,0.88,9.23,1.94,9.23,4.7c0,3.03-3.46,4.5-10.56,4.5
		c-6.49,0-10.18-1.08-11.64-3.42c-0.42-0.61-0.68-1.56-0.71-2.19l-0.02-0.3H0l0.03,0.35c0.14,1.65,0.6,3.23,1.29,4.42
		c2.3,4.19,7.82,6.23,16.87,6.23c10.95,0,16.51-3.42,16.51-10.15C34.7,17.88,31.06,15.15,22.53,14.17z"/>
	<polygon fill="#FFFFFF" points="35.83,5.86 50.16,5.86 50.16,33.02 55.9,33.02 55.9,5.86 70.23,5.86 70.23,0.61 35.83,0.61 	"/>
</g>
</svg>
